<?xml version="1.0" encoding="UTF-8" standalone="no"?>
<!-- Created with Inkscape (http://www.inkscape.org/) -->

<svg
   xmlns:dc="http://purl.org/dc/elements/1.1/"
   xmlns:cc="http://creativecommons.org/ns#"
   xmlns:rdf="http://www.w3.org/1999/02/22-rdf-syntax-ns#"
   xmlns:svg="http://www.w3.org/2000/svg"
   xmlns="http://www.w3.org/2000/svg"
   xmlns:sodipodi="http://sodipodi.sourceforge.net/DTD/sodipodi-0.dtd"
   xmlns:inkscape="http://www.inkscape.org/namespaces/inkscape"
   id="svg29010"
   version="1.1"
   inkscape:version="0.48.5 r10040"
   width="1000"
   height="1183.6259"
   xml:space="preserve"
   sodipodi:docname="TASI10419_Market_Profiles_2016_Italy_final_copy.pdf"><metadata
     id="metadata29016"><rdf:RDF><cc:Work
         rdf:about=""><dc:format>image/svg+xml</dc:format><dc:type
           rdf:resource="http://purl.org/dc/dcmitype/StillImage" /><dc:title></dc:title></cc:Work></rdf:RDF></metadata><defs
     id="defs29014"><clipPath
       clipPathUnits="userSpaceOnUse"
       id="clipPath29046"><path
         d="m 0,841.89 595.276,0 L 595.276,0 0,0 0,841.89 z"
         id="path29048"
         inkscape:connector-curvature="0" /></clipPath><clipPath
       clipPathUnits="userSpaceOnUse"
       id="clipPath29054"><path
         d="m 420.945,18.641 117.638,0 0,28.131 -117.638,0 0,-28.131 z"
         id="path29056"
         inkscape:connector-curvature="0" /></clipPath><clipPath
       clipPathUnits="userSpaceOnUse"
       id="clipPath29142"><path
         d="m 420.945,18.641 117.637,0 0,28.131 -117.637,0 0,-28.131 z"
         id="path29144"
         inkscape:connector-curvature="0" /></clipPath><clipPath
       clipPathUnits="userSpaceOnUse"
       id="clipPath29158"><path
         d="m 420.945,18.641 117.638,0 0,28.131 -117.638,0 0,-28.131 z"
         id="path29160"
         inkscape:connector-curvature="0" /></clipPath><clipPath
       clipPathUnits="userSpaceOnUse"
       id="clipPath29242"><path
         d="m 61.654,535.002 226.772,0 0,104.257 -226.772,0 0,-104.257 z"
         id="path29244"
         inkscape:connector-curvature="0" /></clipPath><clipPath
       clipPathUnits="userSpaceOnUse"
       id="clipPath29250"><path
         d="m 60.6534,640.259 228.7716,0 0,-106.257 -228.7716,0 0,106.257 z"
         id="path29252"
         inkscape:connector-curvature="0" /></clipPath><clipPath
       clipPathUnits="userSpaceOnUse"
       id="clipPath29254"><path
         d="m 61.654,535.002 226.772,0 0,104.257 -226.772,0 0,-104.257 z"
         id="path29256"
         inkscape:connector-curvature="0" /></clipPath><clipPath
       clipPathUnits="userSpaceOnUse"
       id="clipPath29258"><path
         d="m 61.654,535.002 226.772,0 0,104.257 -226.772,0 0,-104.257 z"
         id="path29260"
         inkscape:connector-curvature="0" /></clipPath><clipPath
       clipPathUnits="userSpaceOnUse"
       id="clipPath29262"><path
         d="m 61.653,639.259 226.772,0 0,-104.257 -226.772,0 0,104.257 z"
         id="path29264"
         inkscape:connector-curvature="0" /></clipPath><clipPath
       clipPathUnits="userSpaceOnUse"
       id="clipPath29386"><path
         d="m 61.654,386.407 226.772,0 0,106.288 -226.772,0 0,-106.288 z"
         id="path29388"
         inkscape:connector-curvature="0" /></clipPath><clipPath
       clipPathUnits="userSpaceOnUse"
       id="clipPath29394"><path
         d="m 60.6534,493.695 228.7716,0 0,-108.288 -228.7716,0 0,108.288 z"
         id="path29396"
         inkscape:connector-curvature="0" /></clipPath><clipPath
       clipPathUnits="userSpaceOnUse"
       id="clipPath29398"><path
         d="m 61.654,386.407 226.772,0 0,106.288 -226.772,0 0,-106.288 z"
         id="path29400"
         inkscape:connector-curvature="0" /></clipPath><clipPath
       clipPathUnits="userSpaceOnUse"
       id="clipPath29402"><path
         d="m 61.654,386.407 226.772,0 0,106.288 -226.772,0 0,-106.288 z"
         id="path29404"
         inkscape:connector-curvature="0" /></clipPath><clipPath
       clipPathUnits="userSpaceOnUse"
       id="clipPath29406"><path
         d="m 61.654,386.407 226.772,0 0,106.288 -226.772,0 0,-106.288 z"
         id="path29408"
         inkscape:connector-curvature="0" /></clipPath><clipPath
       clipPathUnits="userSpaceOnUse"
       id="clipPath29614"><path
         d="m 61.654,238.368 226.772,0 0,110.551 -226.772,0 0,-110.551 z"
         id="path29616"
         inkscape:connector-curvature="0" /></clipPath><clipPath
       clipPathUnits="userSpaceOnUse"
       id="clipPath29622"><path
         d="m 60.6534,349.919 228.7716,0 0,-112.551 -228.7716,0 0,112.551 z"
         id="path29624"
         inkscape:connector-curvature="0" /></clipPath><clipPath
       clipPathUnits="userSpaceOnUse"
       id="clipPath29626"><path
         d="m 61.654,238.368 226.772,0 0,110.551 -226.772,0 0,-110.551 z"
         id="path29628"
         inkscape:connector-curvature="0" /></clipPath><clipPath
       clipPathUnits="userSpaceOnUse"
       id="clipPath29630"><path
         d="m 61.654,238.368 226.772,0 0,110.551 -226.772,0 0,-110.551 z"
         id="path29632"
         inkscape:connector-curvature="0" /></clipPath><clipPath
       clipPathUnits="userSpaceOnUse"
       id="clipPath29762"><path
         d="m 119.292,98.96 111.495,0 0,104.882 -111.495,0 0,-104.882 z"
         id="path29764"
         inkscape:connector-curvature="0" /></clipPath><clipPath
       clipPathUnits="userSpaceOnUse"
       id="clipPath29828"><path
         d="m 306.85,535.486 226.772,0 0,101.647 -226.772,0 0,-101.647 z"
         id="path29830"
         inkscape:connector-curvature="0" /></clipPath><clipPath
       clipPathUnits="userSpaceOnUse"
       id="clipPath29836"><path
         d="m 305.85,638.133 228.772,0 0,-103.647 -228.772,0 0,103.647 z"
         id="path29838"
         inkscape:connector-curvature="0" /></clipPath><clipPath
       clipPathUnits="userSpaceOnUse"
       id="clipPath29840"><path
         d="m 306.85,535.486 226.772,0 0,101.647 -226.772,0 0,-101.647 z"
         id="path29842"
         inkscape:connector-curvature="0" /></clipPath><clipPath
       clipPathUnits="userSpaceOnUse"
       id="clipPath29844"><path
         d="m 306.85,535.486 226.772,0 0,101.647 -226.772,0 0,-101.647 z"
         id="path29846"
         inkscape:connector-curvature="0" /></clipPath><clipPath
       clipPathUnits="userSpaceOnUse"
       id="clipPath29962"><path
         d="m 306.85,386.397 226.772,0 0,112.037 -226.772,0 0,-112.037 z"
         id="path29964"
         inkscape:connector-curvature="0" /></clipPath><clipPath
       clipPathUnits="userSpaceOnUse"
       id="clipPath29970"><path
         d="m 305.85,499.434 228.772,0 0,-114.037 -228.772,0 0,114.037 z"
         id="path29972"
         inkscape:connector-curvature="0" /></clipPath><clipPath
       clipPathUnits="userSpaceOnUse"
       id="clipPath29974"><path
         d="m 306.85,386.397 226.772,0 0,112.037 -226.772,0 0,-112.037 z"
         id="path29976"
         inkscape:connector-curvature="0" /></clipPath><clipPath
       clipPathUnits="userSpaceOnUse"
       id="clipPath29978"><path
         d="m 306.85,386.397 226.772,0 0,112.037 -226.772,0 0,-112.037 z"
         id="path29980"
         inkscape:connector-curvature="0" /></clipPath><clipPath
       clipPathUnits="userSpaceOnUse"
       id="clipPath30178"><path
         d="m 306.85,238.555 226.772,0 0,110.551 -226.772,0 0,-110.551 z"
         id="path30180"
         inkscape:connector-curvature="0" /></clipPath><clipPath
       clipPathUnits="userSpaceOnUse"
       id="clipPath30186"><path
         d="m 305.85,350.106 228.772,0 0,-112.551 -228.772,0 0,112.551 z"
         id="path30188"
         inkscape:connector-curvature="0" /></clipPath><clipPath
       clipPathUnits="userSpaceOnUse"
       id="clipPath30190"><path
         d="m 306.85,238.555 226.772,0 0,110.551 -226.772,0 0,-110.551 z"
         id="path30192"
         inkscape:connector-curvature="0" /></clipPath><clipPath
       clipPathUnits="userSpaceOnUse"
       id="clipPath30194"><path
         d="m 306.85,238.555 226.772,0 0,110.551 -226.772,0 0,-110.551 z"
         id="path30196"
         inkscape:connector-curvature="0" /></clipPath><clipPath
       clipPathUnits="userSpaceOnUse"
       id="clipPath30198"><path
         d="m 306.85,238.555 226.772,0 0,110.551 -226.772,0 0,-110.551 z"
         id="path30200"
         inkscape:connector-curvature="0" /></clipPath><clipPath
       clipPathUnits="userSpaceOnUse"
       id="clipPath30334"><path
         d="m 363.543,100.565 113.386,0 0,104.882 -113.386,0 0,-104.882 z"
         id="path30336"
         inkscape:connector-curvature="0" /></clipPath></defs><sodipodi:namedview
     pagecolor="#ffffff"
     bordercolor="#666666"
     borderopacity="1"
     objecttolerance="10"
     gridtolerance="10"
     guidetolerance="10"
     inkscape:pageopacity="0"
     inkscape:pageshadow="2"
     inkscape:window-width="1063"
     inkscape:window-height="1026"
     id="namedview29012"
     showgrid="false"
     fit-margin-left="0.5"
     fit-margin-bottom="0.5"
     fit-margin-top="0.5"
     fit-margin-right="0.5"
     inkscape:zoom="0.25675339"
     inkscape:cx="1192.3534"
     inkscape:cy="1132.5396"
     inkscape:window-x="847"
     inkscape:window-y="-9"
     inkscape:window-maximized="0"
     inkscape:current-layer="g29018"><inkscape:grid
       type="xygrid"
       id="grid30388"
       empspacing="5"
       visible="true"
       enabled="true"
       snapvisiblegridlinesonly="true"
       originx="-911.94661px"
       originy="1389.4873px" /></sodipodi:namedview><g
     id="g29018"
     inkscape:groupmode="layer"
     inkscape:label="TASI10419_Market_Profiles_2016_Italy_final_copy"
     transform="matrix(1.25,0,0,-1.25,-911.94661,-205.86142)"><g
       id="g31421"
       transform="matrix(3.4010397,0,0,3.4010397,49.629814,514.36598)"><g
         id="g29122"
         transform="matrix(6.7937809,0,0,6.7937809,326.81747,-306.61085)"><path
           d="M 0,0 C -0.127,0.121 -0.529,0.419 -1.595,0.669 -1.91,0.246 -2.836,-0.332 -4.113,-1.115 -5.179,-1.768 -7.391,-2.85 -7.391,-2.85 c 0,0 -2.687,-1.3 -3.569,-2.073 -1.801,-1.576 -1.293,-3.042 -0.961,-3.042 0.306,0 0.837,0.972 2.347,2.119 2.158,1.641 4.688,3.065 7.659,4.21 0.611,0.235 1.971,0.636 2.307,0.734 -0.014,0.328 -0.148,0.655 -0.367,0.875 L 0,0 z"
           style="fill:#094971;fill-opacity:1;fill-rule:nonzero;stroke:none"
           id="path29124"
           inkscape:connector-curvature="0" /></g><g
         id="g29126"
         transform="matrix(6.7937809,0,0,6.7937809,388.08786,-233.42689)"><path
           d="M 0,0 C 0.213,0.548 0.283,0.795 -0.057,0.941 -0.34,1.063 -0.831,1.202 -0.897,1.118 -0.999,0.988 -0.158,0.1 0,0"
           style="fill:#094971;fill-opacity:1;fill-rule:nonzero;stroke:none"
           id="path29128"
           inkscape:connector-curvature="0" /></g><g
         id="g29130"
         transform="matrix(6.7937809,0,0,6.7937809,369.9702,-285.48355)"><path
           d="m 0,0 c -0.022,1.061 -0.525,2.033 -1.323,2.666 -0.09,0.072 -0.184,0.14 -0.282,0.203 -0.5,0.321 -1.094,0.518 -1.746,0.543 -1.907,0.07 -3.555,-1.451 -3.593,-3.384 -0.029,-1.498 0.763,-2.288 1.098,-2.621 0.012,-0.013 0.022,-0.025 0.033,-0.034 0.74,-0.745 0.987,-2.367 -0.6,-3.333 2.012,1.148 4.687,2.395 6.109,4.055 0.001,0.004 0.002,0.01 0.005,0.015 0.05,0.146 0.32,1.017 0.299,1.89"
           style="fill:#a21d5d;fill-opacity:1;fill-rule:nonzero;stroke:none"
           id="path29132"
           inkscape:connector-curvature="0" /></g><g
         id="g29134"
         transform="matrix(6.7937809,0,0,6.7937809,315.65189,-268.54938)"><path
           d="m 0,0 c -1.194,-0.755 -3.662,-1.868 -6.942,-0.976 -3.961,1.077 -6.407,5.561 -6.586,5.856 -0.296,0.495 -0.59,0.38 -0.413,-0.17 0.175,-0.552 1.104,-3.101 3.084,-4.973 1.952,-1.846 4.633,-3.243 8.5,-3.613 C 0.911,-4.097 1.865,-4.81 2.149,-5.085 1.815,-4.752 1.022,-3.962 1.051,-2.464 1.089,-0.532 2.737,0.99 4.644,0.919 5.296,0.895 5.89,0.698 6.39,0.376 6.386,0.379 6.382,0.384 6.378,0.386 5.154,1.233 2.386,1.47 0,0"
           style="fill:#ef3029;fill-opacity:1;fill-rule:nonzero;stroke:none"
           id="path29136"
           inkscape:connector-curvature="0" /></g><g
         transform="matrix(6.7937809,0,0,6.7937809,-3244.5563,-517.53601)"
         id="g29138"><g
           id="g29140"
           clip-path="url(#clipPath29142)"><g
             id="g29146"
             transform="translate(525.6214,28.1964)"><path
               d="m 0,0 c -0.516,-0.295 -3.265,-2.005 -3.371,-2.07 0,-0.001 -0.002,-0.001 -0.002,-0.001 -2.088,-1.241 -3.963,-2.113 -6.248,-4.408 -1.284,-1.288 -1.045,-3.076 -0.7,-3.076 0.342,0 1.121,1.102 2.56,2.457 3.242,3.056 8.295,5.465 10.476,6.975 C 4.102,0.824 5.447,2.201 6.11,4.056 4.687,2.396 2.012,1.149 0,0"
               style="fill:#57c9f4;fill-opacity:1;fill-rule:nonzero;stroke:none"
               id="path29148"
               inkscape:connector-curvature="0" /></g><g
             id="g29150"
             transform="translate(538.4136,42.7177)"><path
               d="m 0,0 c -0.298,0.11 -1.492,0.261 -2.355,0.35 -0.335,0.297 -1.109,0.829 -1.272,0.739 -0.169,-0.095 0.536,-1.093 0.619,-1.293 -0.024,-0.159 -0.126,-0.729 -0.489,-1.35 -1.338,-2.301 -3.72,-2.134 -3.972,-2.139 0.927,-0.02 3.522,-0.088 5.351,1.416 0.143,0.122 0.285,0.252 0.424,0.391 0.139,0.14 0.6,0.646 1.482,0.852 C 0.186,-0.901 0.299,-0.112 0,0"
               style="fill:#ef3029;fill-opacity:1;fill-rule:nonzero;stroke:none"
               id="path29152"
               inkscape:connector-curvature="0" /></g></g></g><g
         transform="matrix(6.7937809,0,0,6.7937809,-3244.5563,-517.53601)"
         id="g29154"><g
           id="g29156"
           clip-path="url(#clipPath29158)"><g
             id="g29162"
             transform="translate(534.7068,36.5012)"><path
               d="m 0,0 c -0.001,0 -0.001,0 -0.001,-0.002 0.076,-0.416 0.399,-1.824 0.256,-2.506 -0.172,-0.824 0.628,-0.487 0.784,0.617 0.108,0.77 0.116,2.75 0.116,2.75 C 1.164,2.078 1.294,2.694 1.459,3.248 1.112,2.431 0.644,1.261 0,0"
               style="fill:#81bc29;fill-opacity:1;fill-rule:nonzero;stroke:none"
               id="path29164"
               inkscape:connector-curvature="0" /></g><g
             id="g29166"
             transform="translate(523.9135,37.5478)"><path
               d="m 0,0 c 0.882,0.606 2.215,1.523 4.093,1.99 0.208,0.052 0.422,0.096 0.635,0.131 0.203,0.562 0.314,1.169 0.314,1.801 0,2.928 -2.373,5.302 -5.302,5.302 -2.927,0 -5.3,-2.374 -5.3,-5.302 0,-2.275 1.435,-4.216 3.447,-4.967 0.74,0.231 1.344,0.543 1.795,0.828 C -0.219,-0.15 -0.112,-0.077 0,0"
               style="fill:#fbbc09;fill-opacity:1;fill-rule:nonzero;stroke:none"
               id="path29168"
               inkscape:connector-curvature="0" /></g><g
             id="g29170"
             transform="translate(536.2955,40.4409)"><path
               d="m 0,0 c -1.829,-1.504 -4.423,-1.436 -5.351,-1.416 -0.36,0.008 -1.662,-0.007 -2.742,-0.275 -1.975,-0.493 -3.301,-1.524 -4.163,-2.101 2.386,1.471 5.154,1.234 6.378,0.387 0.004,-0.003 0.008,-0.008 0.012,-0.011 0.098,-0.062 0.192,-0.13 0.282,-0.202 0.799,-0.634 1.301,-1.605 1.323,-2.666 0.021,-0.874 -0.249,-1.744 -0.299,-1.891 0,-0.004 0.002,-0.007 0.002,-0.007 1.278,1.274 2.239,2.816 2.969,4.242 0.645,1.261 1.112,2.431 1.46,3.249 0.231,0.544 0.408,0.93 0.554,1.082 C 0.285,0.251 0.143,0.121 0,0"
               style="fill:#fbbc09;fill-opacity:1;fill-rule:nonzero;stroke:none"
               id="path29172"
               inkscape:connector-curvature="0" /></g></g></g></g><g
       transform="matrix(16.792293,0,0,16.792293,756.91996,-1078.5607)"
       id="g29058"><path
         inkscape:connector-curvature="0"
         id="path29060"
         style="fill:#094971;fill-opacity:1;fill-rule:nonzero;stroke:none"
         d="m 0,0 0.956,2.145 0.039,0 L 1.958,0 0,0 z M 1.159,3.61 C 1.136,3.657 1.066,3.697 1.026,3.697 l -0.078,0 C 0.909,3.697 0.838,3.657 0.815,3.61 L -1.59,-1.661 c -0.047,-0.102 0.016,-0.203 0.133,-0.203 l 0.494,0 c 0.094,0 0.156,0.062 0.18,0.117 0.157,0.36 0.32,0.713 0.477,1.073 l 2.562,0 0.485,-1.073 c 0.032,-0.071 0.086,-0.117 0.181,-0.117 l 0.493,0 c 0.117,0 0.18,0.101 0.133,0.203 L 1.159,3.61 z" /></g><g
       transform="matrix(16.792293,0,0,16.792293,907.41342,-1017.8079)"
       id="g29062"><path
         inkscape:connector-curvature="0"
         id="path29064"
         style="fill:#094971;fill-opacity:1;fill-rule:nonzero;stroke:none"
         d="m 0,0 -0.525,0 c -0.086,0 -0.148,-0.07 -0.148,-0.149 l 0,-3.25 c 0,-0.776 -0.51,-1.379 -1.317,-1.379 -0.799,0 -1.299,0.612 -1.299,1.394 l 0,3.235 C -3.289,-0.07 -3.353,0 -3.438,0 l -0.526,0 c -0.078,0 -0.148,-0.07 -0.148,-0.149 l 0,-3.289 c 0,-1.191 0.893,-2.123 2.122,-2.123 1.238,0 2.138,0.932 2.138,2.123 l 0,3.289 C 0.148,-0.07 0.078,0 0,0" /></g><g
       transform="matrix(16.792293,0,0,16.792293,967.62418,-1056.8651)"
       id="g29066"><path
         inkscape:connector-curvature="0"
         id="path29068"
         style="fill:#094971;fill-opacity:1;fill-rule:nonzero;stroke:none"
         d="m 0,0 c -0.65,0.266 -0.995,0.54 -0.995,0.987 0,0.29 0.227,0.705 0.884,0.705 C 0.344,1.692 0.893,1.331 0.948,1.3 1.057,1.23 1.159,1.277 1.221,1.378 1.284,1.472 1.355,1.581 1.417,1.676 1.496,1.794 1.433,1.903 1.37,1.942 1.292,1.997 0.704,2.405 -0.079,2.405 c -1.245,0 -1.715,-0.839 -1.715,-1.45 0,-0.908 0.626,-1.323 1.425,-1.66 0.776,-0.321 1.183,-0.619 1.183,-1.089 0,-0.399 -0.345,-0.728 -0.885,-0.728 -0.602,0 -1.207,0.501 -1.253,0.54 -0.086,0.071 -0.196,0.039 -0.266,-0.062 -0.071,-0.102 -0.134,-0.219 -0.204,-0.321 -0.078,-0.134 -0.023,-0.188 0.046,-0.251 0.126,-0.117 0.729,-0.619 1.685,-0.619 1.018,0 1.747,0.665 1.747,1.48 C 1.684,-0.8 0.908,-0.368 0,0" /></g><g
       transform="matrix(16.792293,0,0,16.792293,1087.8108,-1017.8079)"
       id="g29070"><path
         inkscape:connector-curvature="0"
         id="path29072"
         style="fill:#094971;fill-opacity:1;fill-rule:nonzero;stroke:none"
         d="m 0,0 -3.938,0 c -0.086,0 -0.149,-0.07 -0.149,-0.149 l 0,-0.439 c 0,-0.078 0.063,-0.148 0.149,-0.148 l 1.562,0 0,-4.598 c 0,-0.078 0.07,-0.148 0.148,-0.148 l 0.518,0 c 0.077,0 0.148,0.07 0.148,0.148 l 0,4.598 1.562,0 c 0.086,0 0.149,0.07 0.149,0.148 l 0,0.439 C 0.149,-0.07 0.086,0 0,0" /></g><g
       transform="matrix(16.792293,0,0,16.792293,1153.7926,-1062.5241)"
       id="g29074"><path
         inkscape:connector-curvature="0"
         id="path29076"
         style="fill:#094971;fill-opacity:1;fill-rule:nonzero;stroke:none"
         d="m 0,0 -1.394,0 0,1.903 1.394,0 C 0.509,1.903 0.956,1.481 0.956,0.971 0.956,0.431 0.509,0 0,0 m 1.77,0.987 c 0,0.931 -0.767,1.676 -1.707,1.676 l -2.131,0 c -0.085,0 -0.148,-0.07 -0.148,-0.149 l 0,-5.185 c 0,-0.078 0.063,-0.148 0.148,-0.148 l 0.509,0 c 0.079,0 0.15,0.07 0.15,0.148 l 0,1.997 1.182,0 1.042,-2.075 c 0.015,-0.031 0.062,-0.07 0.124,-0.07 l 0.612,0 c 0.133,0 0.188,0.125 0.133,0.227 l -1.073,1.989 c 0.681,0.275 1.159,0.87 1.159,1.59" /></g><g
       transform="matrix(16.792293,0,0,16.792293,1233.7989,-1078.5607)"
       id="g29078"><path
         inkscape:connector-curvature="0"
         id="path29080"
         style="fill:#094971;fill-opacity:1;fill-rule:nonzero;stroke:none"
         d="m 0,0 0.955,2.145 0.039,0 L 1.957,0 0,0 z M 1.159,3.61 C 1.135,3.657 1.064,3.697 1.025,3.697 l -0.078,0 c -0.039,0 -0.11,-0.04 -0.133,-0.087 l -2.405,-5.271 c -0.046,-0.102 0.016,-0.203 0.134,-0.203 l 0.492,0 c 0.095,0 0.158,0.062 0.181,0.117 0.157,0.36 0.321,0.713 0.478,1.073 l 2.561,0 0.486,-1.073 c 0.031,-0.071 0.086,-0.117 0.18,-0.117 l 0.493,0 c 0.118,0 0.18,0.101 0.134,0.203 L 1.159,3.61 z" /></g><g
       transform="matrix(16.792293,0,0,16.792293,1372.4831,-1097.6384)"
       id="g29082"><path
         inkscape:connector-curvature="0"
         id="path29084"
         style="fill:#094971;fill-opacity:1;fill-rule:nonzero;stroke:none"
         d="m 0,0 -2.337,0 0,4.605 c 0,0.079 -0.07,0.149 -0.148,0.149 l -0.517,0 c -0.086,0 -0.149,-0.07 -0.149,-0.149 l 0,-5.185 c 0,-0.078 0.063,-0.148 0.149,-0.148 l 3.002,0 c 0.086,0 0.149,0.07 0.149,0.148 l 0,0.431 C 0.149,-0.07 0.086,0 0,0" /></g><g
       transform="matrix(16.792293,0,0,16.792293,1413.0892,-1017.8079)"
       id="g29086"><path
         inkscape:connector-curvature="0"
         id="path29088"
         style="fill:#094971;fill-opacity:1;fill-rule:nonzero;stroke:none"
         d="m 0,0 -0.517,0 c -0.079,0 -0.149,-0.07 -0.149,-0.149 l 0,-5.185 c 0,-0.078 0.07,-0.148 0.149,-0.148 l 0.517,0 c 0.078,0 0.149,0.07 0.149,0.148 l 0,5.185 C 0.149,-0.07 0.078,0 0,0" /></g><g
       transform="matrix(16.792293,0,0,16.792293,1469.3153,-1078.5607)"
       id="g29090"><path
         inkscape:connector-curvature="0"
         id="path29092"
         style="fill:#094971;fill-opacity:1;fill-rule:nonzero;stroke:none"
         d="m 0,0 0.956,2.145 0.039,0 L 1.958,0 0,0 z M 3.548,-1.661 1.159,3.61 C 1.136,3.657 1.064,3.697 1.026,3.697 l -0.079,0 C 0.909,3.697 0.838,3.657 0.814,3.61 L -1.59,-1.661 c -0.047,-0.102 0.016,-0.203 0.133,-0.203 l 0.494,0 c 0.094,0 0.156,0.062 0.179,0.117 0.157,0.36 0.321,0.713 0.479,1.073 l 2.56,0 0.486,-1.073 c 0.031,-0.071 0.087,-0.117 0.18,-0.117 l 0.494,0 c 0.117,0 0.18,0.101 0.133,0.203" /></g><g
       transform="matrix(16.792293,0,0,16.792293,877.69097,-870.26529)"
       id="g29094"><path
         inkscape:connector-curvature="0"
         id="path29096"
         style="fill:#094971;fill-opacity:1;fill-rule:nonzero;stroke:none"
         d="m 0,0 -3.939,0 c -0.086,0 -0.149,-0.07 -0.149,-0.149 l 0,-0.439 c 0,-0.078 0.063,-0.148 0.149,-0.148 l 1.563,0 0,-4.598 c 0,-0.078 0.07,-0.148 0.148,-0.148 l 0.517,0 c 0.078,0 0.149,0.07 0.149,0.148 l 0,4.598 1.562,0 c 0.086,0 0.149,0.07 0.149,0.148 l 0,0.439 C 0.149,-0.07 0.086,0 0,0" /></g><g
       transform="matrix(16.792293,0,0,16.792293,940.92825,-950.88509)"
       id="g29098"><path
         inkscape:connector-curvature="0"
         id="path29100"
         style="fill:#094971;fill-opacity:1;fill-rule:nonzero;stroke:none"
         d="m 0,0 c 1.118,0 2.032,0.907 2.032,2.025 0,1.11 -0.914,2.04 -2.032,2.04 -1.11,0 -2.025,-0.93 -2.025,-2.04 C -2.025,0.907 -1.11,0 0,0 m 0,4.846 c 1.563,0 2.814,-1.258 2.814,-2.821 0,-1.564 -1.251,-2.807 -2.814,-2.807 -1.563,0 -2.806,1.243 -2.806,2.807 0,1.563 1.243,2.821 2.806,2.821" /></g><g
       transform="matrix(16.792293,0,0,16.792293,1014.103,-873.30636)"
       id="g29102"><path
         inkscape:connector-curvature="0"
         id="path29104"
         style="fill:#094971;fill-opacity:1;fill-rule:nonzero;stroke:none"
         d="m 0,0 c 0,0.078 0.07,0.148 0.149,0.148 l 0.523,0 C 0.758,0.148 0.821,0.078 0.821,0 l 0,-3.228 c 0,-0.782 0.5,-1.392 1.297,-1.392 0.806,0 1.314,0.602 1.314,1.376 l 0,3.244 c 0,0.078 0.062,0.148 0.148,0.148 l 0.524,0 C 4.182,0.148 4.252,0.078 4.252,0 l 0,-3.283 C 4.252,-4.471 3.354,-5.402 2.118,-5.402 0.891,-5.402 0,-4.471 0,-3.283 L 0,0 z" /></g><g
       transform="matrix(16.792293,0,0,16.792293,1155.172,-915.44328)"
       id="g29106"><path
         inkscape:connector-curvature="0"
         id="path29108"
         style="fill:#094971;fill-opacity:1;fill-rule:nonzero;stroke:none"
         d="M 0,0 C 0.508,0 0.954,0.43 0.954,0.969 0.954,1.477 0.508,1.9 0,1.9 l -1.391,0 0,-1.9 L 0,0 z m -2.212,2.509 c 0,0.078 0.062,0.149 0.148,0.149 l 2.127,0 c 0.938,0 1.704,-0.743 1.704,-1.673 0,-0.719 -0.477,-1.313 -1.157,-1.587 l 1.071,-1.985 c 0.054,-0.102 0,-0.227 -0.133,-0.227 l -0.61,0 c -0.062,0 -0.109,0.039 -0.125,0.07 l -1.04,2.072 -1.18,0 0,-1.994 c 0,-0.078 -0.07,-0.148 -0.149,-0.148 l -0.508,0 c -0.086,0 -0.148,0.07 -0.148,0.148 l 0,5.175 z" /></g><g
       transform="matrix(16.792293,0,0,16.792293,1213.9939,-873.30636)"
       id="g29110"><path
         inkscape:connector-curvature="0"
         id="path29112"
         style="fill:#094971;fill-opacity:1;fill-rule:nonzero;stroke:none"
         d="m 0,0 c 0,0.078 0.07,0.148 0.148,0.148 l 0.517,0 C 0.743,0.148 0.813,0.078 0.813,0 l 0,-5.175 c 0,-0.078 -0.07,-0.149 -0.148,-0.149 l -0.517,0 C 0.07,-5.324 0,-5.253 0,-5.175 L 0,0 z" /></g><g
       transform="matrix(16.792293,0,0,16.792293,1257.861,-949.44097)"
       id="g29114"><path
         inkscape:connector-curvature="0"
         id="path29116"
         style="fill:#094971;fill-opacity:1;fill-rule:nonzero;stroke:none"
         d="m 0,0 c 0.07,0.102 0.133,0.219 0.203,0.32 0.071,0.102 0.18,0.133 0.266,0.063 0.047,-0.039 0.649,-0.539 1.251,-0.539 0.539,0 0.883,0.328 0.883,0.726 0,0.469 -0.406,0.767 -1.18,1.087 C 0.625,1.993 0,2.408 0,3.314 0,3.924 0.469,4.76 1.712,4.76 2.494,4.76 3.08,4.354 3.158,4.299 3.221,4.26 3.283,4.151 3.205,4.033 3.142,3.94 3.072,3.83 3.01,3.737 2.947,3.635 2.845,3.588 2.736,3.658 2.681,3.69 2.134,4.049 1.681,4.049 1.024,4.049 0.797,3.635 0.797,3.346 0.797,2.9 1.141,2.626 1.79,2.361 2.697,1.993 3.471,1.563 3.471,0.61 c 0,-0.813 -0.727,-1.478 -1.743,-1.478 -0.954,0 -1.556,0.501 -1.681,0.618 C -0.023,-0.188 -0.078,-0.133 0,0" /></g><g
       transform="matrix(16.792293,0,0,16.792293,1356.8422,-871.46929)"
       id="g29118"><path
         inkscape:connector-curvature="0"
         id="path29120"
         style="fill:#094971;fill-opacity:1;fill-rule:nonzero;stroke:none"
         d="m 0,0 c 0.016,0.063 0.078,0.117 0.141,0.117 l 0.125,0 c 0.047,0 0.117,-0.039 0.133,-0.086 l 1.633,-3.994 0.032,0 1.626,3.994 c 0.015,0.047 0.078,0.086 0.132,0.086 l 0.126,0 C 4.01,0.117 4.073,0.063 4.088,0 L 5.05,-5.253 c 0.023,-0.11 -0.031,-0.18 -0.141,-0.18 l -0.508,0 c -0.07,0 -0.133,0.055 -0.149,0.109 l -0.578,3.495 -0.023,0 -1.408,-3.596 C 2.228,-5.472 2.181,-5.511 2.111,-5.511 l -0.141,0 c -0.063,0 -0.117,0.039 -0.133,0.086 l -1.415,3.596 -0.031,0 -0.563,-3.495 C -0.18,-5.378 -0.25,-5.433 -0.313,-5.433 l -0.508,0 c -0.109,0 -0.164,0.07 -0.148,0.18 L 0,0 z" /></g></g></svg>